<?xml version="1.0" standalone="no"?>
<!DOCTYPE svg PUBLIC "-//W3C//DTD SVG 20010904//EN"
 "http://www.w3.org/TR/2001/REC-SVG-20010904/DTD/svg10.dtd">
<svg version="1.0" xmlns="http://www.w3.org/2000/svg"
 width="351.000000pt" height="351.000000pt" viewBox="0 0 351.000000 351.000000"
 preserveAspectRatio="xMidYMid meet">
<metadata>
Created by potrace 1.11, written by Peter Selinger 2001-2013
</metadata>
<g transform="translate(0.000000,351.000000) scale(0.100000,-0.100000)"
fill="#000000" stroke="none">
<path d="M0 1755 l0 -1755 1755 0 1755 0 0 1755 0 1755 -1755 0 -1755 0 0
-1755z m1570 1355 c90 -176 167 -320 170 -320 3 1 85 145 183 320 l179 320
174 0 c96 0 174 -2 174 -4 0 -2 -117 -203 -259 -448 -143 -244 -261 -450 -263
-458 -2 -8 16 -17 50 -25 74 -17 188 -77 247 -129 l49 -43 -64 -98 c-36 -54
-68 -103 -72 -108 -4 -6 -26 11 -53 41 -43 48 -133 102 -169 102 -14 0 -16
-28 -15 -227 0 -150 4 -240 12 -262 10 -29 28 -43 122 -95 236 -131 321 -281
286 -505 -16 -103 -46 -186 -93 -256 -41 -62 -44 -84 -16 -154 9 -24 12 -18
39 74 175 591 341 1144 348 1160 8 19 16 20 164 17 l155 -3 -296 -890 -297
-890 -113 3 -114 3 -72 230 c-69 222 -73 230 -96 227 -14 -1 -81 -5 -150 -8
-104 -4 -136 -2 -193 14 l-67 19 -25 -81 c-13 -44 -46 -153 -73 -241 l-48
-160 -114 -3 -115 -2 -267 857 c-148 472 -268 873 -268 891 l0 32 148 0 147 0
189 -622 c104 -343 193 -629 197 -637 4 -9 12 6 23 42 l16 56 -55 76 c-30 43
-55 82 -55 89 0 6 41 52 90 101 68 67 93 87 99 76 5 -7 11 -9 14 -5 7 14 117
402 117 416 0 7 -18 23 -39 35 -73 42 -149 121 -183 191 -32 64 -33 72 -32
177 1 122 20 190 74 275 39 61 134 152 189 179 23 12 41 28 38 34 -2 7 -122
216 -266 466 -143 250 -261 458 -261 463 0 4 78 8 173 8 l172 -1 165 -319z"/>
<path d="M1592 2035 c0 -16 2 -22 5 -12 2 9 2 23 0 30 -3 6 -5 -1 -5 -18z"/>
<path d="M1665 1203 c-32 -109 -60 -204 -63 -211 -7 -21 77 -52 144 -52 68 0
127 16 121 34 -2 6 -33 104 -68 219 -35 114 -66 207 -69 207 -4 0 -33 -89 -65
-197z"/>
</g>
</svg>
