<?xml version="1.0" encoding="utf-8"?>
<!-- Generator: Adobe Illustrator 23.0.0, SVG Export Plug-In . SVG Version: 6.00 Build 0)  -->
<svg version="1.1" xmlns="http://www.w3.org/2000/svg" xmlns:xlink="http://www.w3.org/1999/xlink" x="0px" y="0px"
	 viewBox="0 0 2000 2000" style="enable-background:new 0 0 2000 2000;" xml:space="preserve">
<style type="text/css">
	.st0{fill:#00EBEB;}
	.st1{fill:#92898A;}
	.st2{fill:#00414F;}
	.st3{fill:#D4C6C8;}
	.st4{fill:#786668;}
	.st5{fill:url(#SVGID_1_);}
	.st6{fill:url(#SVGID_2_);}
	.st7{fill:#00A6A6;}
	.st8{fill:url(#SVGID_3_);}
	.st9{fill:url(#SVGID_4_);}
	.st10{opacity:0.38;}
	.st11{fill:#CEE8E8;}
	.st12{fill:url(#SVGID_5_);}
</style>
<g id="Layer_2">
</g>
<g id="Layer_1">

	<g>
		<g>
			<path class="st0" d="M1000.01,1579.27c-3.17,0-6.3-0.82-9.06-2.37c-67.17-37.78-129.71-85-185.94-140.37l-111.47,77.37
				c-3.11,2.16-6.75,3.3-10.53,3.3c-4.59,0-9-1.7-12.4-4.78l-11.43-10.35c-6.4-5.79-7.95-15.12-3.75-22.66l71.92-129.41
				c-9.45-11.92-18.68-24.11-27.47-36.29c-63.9-88.56-116.68-191.54-156.87-306.08c-46.73-133.18-65.4-252.13-72.44-312.42
				l-22.94-25.34c-14.94-16.5-24.8-27.4-26.92-29.75c-11.26-12.45-13.47-36.69-11.74-56.11c-3.11-4.77-5.25-10.01-6.24-15.3
				c-1.31-6.24-1.23-12.73,0.22-18.99l-48.9-54.05c-4.74-5.24-6.08-12.86-3.39-19.4c1.1-2.68,7.5-16.85,25.32-32.98
				c1.92-1.69,3.74-3.21,5.42-4.61l0.12-0.1c8-6.32,15.68-10.7,20.72-13.25c4.29-2.14,7.14-3.23,7.67-3.43
				c2.07-0.77,4.23-1.16,6.43-1.16c5.21,0,10.2,2.22,13.7,6.08l52.02,57.49c12.05,0.43,23.48,5.72,31.58,14.67l40.44,44.69
				c7.19-5.52,14.62-10.87,22.16-15.96c72.32-48.8,204.54-106.97,423.75-106.97c219.17,0,351.38,58.17,423.7,106.97
				c7.55,5.09,14.98,10.45,22.17,15.97l40.45-44.7c8.1-8.95,19.54-14.24,31.58-14.67l52.02-57.49c3.49-3.86,8.49-6.08,13.7-6.08
				c2.2,0,4.36,0.39,6.42,1.15c0.54,0.2,3.41,1.3,7.71,3.45c5.05,2.56,12.74,6.95,20.94,13.44l0.13,0.1
				c1.62,1.35,3.37,2.82,5.23,4.46c17.77,16.09,24.15,30.24,25.25,32.91c2.69,6.55,1.36,14.17-3.39,19.41l-48.88,54.02
				c1.44,6.2,1.54,12.6,0.25,18.72c-1.04,5.54-3.16,10.78-6.31,15.61c1.74,19.4-0.44,43.62-11.71,56.07
				c-2.15,2.4-12.2,13.49-27.4,30.28l-22.48,24.83c-5.38,46.31-16.49,118.62-39.05,203.65c-32.12,121.04-95.92,297.17-217.75,451.1
				l71.95,129.45c4.2,7.55,2.66,16.87-3.75,22.67l-11.43,10.35c-3.4,3.08-7.81,4.78-12.4,4.78c-3.78,0-7.42-1.14-10.53-3.3
				l-111.5-77.39c-56.34,55.5-118.85,102.72-185.88,140.4C1006.31,1578.45,1003.18,1579.27,1000.01,1579.27z"/>
			<path class="st0" d="M1583.63,427.12c1.41,0,2.83,0.25,4.2,0.76c0.29,0.11,2.96,1.12,7.07,3.17c4.75,2.41,12,6.54,19.83,12.73
				c1.61,1.34,3.29,2.76,5.1,4.35c17.05,15.44,22.95,29.05,23.57,30.55c1.77,4.31,0.9,9.24-2.22,12.69L1589.96,548
				c2,6.16,2.43,12.78,1.08,19.15c-1.02,5.49-3.33,10.65-6.63,15.16c1.89,17.39,0.54,41.99-9.86,53.49
				c-2.23,2.49-13.08,14.47-28.9,31.94l-22.35,24.69c-5.07,44.32-16.04,117.83-39.11,204.78
				c-32.82,123.66-97.15,299.23-219.23,452.1l74.02,133.18c2.73,4.91,1.71,11.06-2.45,14.83l-11.43,10.35
				c-2.29,2.07-5.19,3.13-8.11,3.13c-2.4,0-4.8-0.71-6.89-2.16l-115.87-80.42c-56.68,56.49-119.88,104.66-188.29,143.11
				c-1.84,1.03-3.88,1.55-5.92,1.55c-2.04,0-4.09-0.52-5.92-1.55c-68.58-38.58-131.55-86.49-188.35-143.08l-115.83,80.39
				c-2.08,1.45-4.49,2.16-6.89,2.16c-2.92,0-5.83-1.05-8.11-3.13l-11.43-10.35c-4.17-3.77-5.18-9.92-2.45-14.83l74-133.14
				c-10.24-12.8-20.23-25.92-29.95-39.4c-63.54-88.06-116.03-190.5-156.02-304.45c-46.69-133.05-65.27-251.41-72.36-313.08
				l-22.35-24.69c-15.82-17.47-26.67-29.45-28.86-31.9c-10.43-11.53-11.78-36.18-9.91-53.54c-3.3-4.5-5.59-9.6-6.56-14.84
				c-1.38-6.53-0.96-13.23,1.04-19.44l-51.25-56.64c-3.12-3.45-3.99-8.39-2.22-12.69c0.62-1.5,6.51-15.11,23.69-30.67
				c1.68-1.48,3.36-2.89,5.22-4.43c7.59-6,14.84-10.13,19.65-12.57c4.05-2.02,6.72-3.03,7.01-3.14c1.37-0.51,2.8-0.76,4.2-0.76
				c3.35,0,6.63,1.4,8.96,3.98l50.32,55.62l3.67,4.05c0.4-0.01,0.78-0.11,1.18-0.11c10.82,0,21.18,4.59,28.43,12.6l44.42,49.09
				c8.09-6.39,16.88-12.87,26.49-19.34c71.58-48.3,202.59-105.88,420.18-105.88c217.56,0,348.55,57.58,420.13,105.88
				c9.6,6.48,18.4,12.96,26.49,19.35l44.43-49.1c7.24-8.01,17.6-12.6,28.43-12.6c0.4,0,0.78,0.1,1.18,0.11l3.67-4.05l50.32-55.63
				C1577,428.52,1580.28,427.12,1583.63,427.12 M1583.63,414.35c-7.01,0-13.73,2.98-18.44,8.18l-50.27,55.57
				c-12.74,1.15-24.69,7.05-33.32,16.6l-36.53,40.36c-5.81-4.34-11.76-8.57-17.79-12.63c-73.06-49.3-206.49-108.07-427.27-108.07
				c-220.82,0-354.26,58.77-427.32,108.06c-6.01,4.06-11.96,8.28-17.78,12.63l-36.52-40.36c-8.63-9.54-20.58-15.45-33.32-16.59
				l-50.27-55.57c-4.7-5.2-11.42-8.18-18.43-8.18c-2.96,0-5.87,0.52-8.65,1.55c-0.6,0.22-3.74,1.42-8.28,3.69l-0.03,0.02l-0.03,0.02
				c-5.3,2.69-13.38,7.29-21.79,13.94l-0.12,0.09l-0.12,0.1c-1.72,1.43-3.58,2.99-5.5,4.67l-0.07,0.06l-0.07,0.06
				c-18.84,17.06-25.74,32.38-26.93,35.27c-3.62,8.82-1.83,19.07,4.56,26.12l46.75,51.68c-0.98,6.09-0.86,12.31,0.4,18.32
				c1.02,5.38,3.06,10.71,5.97,15.64c-0.98,13.7-1.04,42.69,13.55,58.82c2.23,2.49,12.35,13.66,27.61,30.52l1.25,1.38l19.6,21.66
				c7.25,61.18,26.1,179.48,72.52,311.77c40.39,115.11,93.46,218.64,157.71,307.7c8.02,11.12,16.41,22.25,25,33.18l-69.85,125.69
				c-5.65,10.16-3.57,22.7,5.05,30.5l11.43,10.35c4.58,4.14,10.5,6.43,16.68,6.43c5.09,0,9.99-1.53,14.17-4.44l107.13-74.36
				c55.65,54.17,117.34,100.46,183.51,137.68c3.71,2.09,7.93,3.19,12.19,3.19c4.26,0,8.47-1.1,12.18-3.19
				c66.03-37.11,127.7-83.41,183.45-137.71l107.17,74.38c4.18,2.9,9.08,4.44,14.17,4.44c6.18,0,12.1-2.28,16.68-6.43l11.43-10.35
				c8.62-7.8,10.69-20.34,5.05-30.5l-69.88-125.73c120.78-153.98,184.23-329.32,216.27-450.07c22.33-84.16,33.5-155.93,38.99-202.52
				l19.6-21.66l2.22-2.45c14.8-16.34,24.57-27.14,26.72-29.53c14.54-16.12,14.45-45.06,13.47-58.74c2.93-4.98,5-10.4,6.04-15.94
				c1.23-5.91,1.35-12.04,0.37-18.06l46.73-51.65c6.39-7.06,8.18-17.31,4.56-26.11c-1.2-2.91-8.09-18.22-26.81-35.17l-0.06-0.06
				l-0.06-0.06c-1.94-1.71-3.73-3.21-5.37-4.58l-0.12-0.1l-0.13-0.1c-8.61-6.81-16.71-11.43-21.98-14.11l-0.03-0.02l-0.03-0.02
				c-4.61-2.3-7.75-3.5-8.34-3.72C1589.5,414.87,1586.59,414.35,1583.63,414.35L1583.63,414.35z"/>
		</g>
		<g>
			<g>
				<g>
					<g>
						<g>
							<path class="st1" d="M432.72,561.09c-1.65,0-3.28-0.67-4.48-1.98l-64.95-71.79c-1.56-1.73-1.99-4.19-1.11-6.35
								c0.22-0.55,5.69-13.57,22.03-28.37c1.72-1.51,3.37-2.9,4.91-4.19c0.04-0.03,0.08-0.07,0.12-0.1
								c7.19-5.69,14.07-9.6,18.58-11.89c3.86-1.93,6.34-2.86,6.44-2.89c0.69-0.25,1.4-0.38,2.1-0.38c1.68,0,3.31,0.7,4.48,1.99
								l50.32,55.63L485.86,507c1.08,1.19,1.64,2.75,1.56,4.36c-0.08,1.6-0.79,3.1-1.98,4.18l-20.18,18.27l-18.4,16.61l-10.09,9.13
								C435.62,560.58,434.17,561.09,432.72,561.09z"/>
							<g>
								<path class="st2" d="M416.37,439.2l50.32,55.63l14.69,16.22l-20.18,18.27l-18.39,16.6l-10.09,9.13l-0.64-0.7l-64.31-71.08
									c0,0,4.98-12.13,20.5-26.18c1.6-1.41,3.19-2.75,4.73-4.02c6.71-5.3,13.16-9.01,17.56-11.24
									C414.14,440.03,416.37,439.2,416.37,439.2 M416.37,427.12c-1.41,0-2.83,0.25-4.2,0.76c-0.29,0.11-2.97,1.12-7.01,3.14
									c-0.02,0.01-0.04,0.02-0.06,0.03c-4.75,2.41-12,6.54-19.59,12.54c-0.08,0.06-0.16,0.13-0.24,0.2
									c-1.58,1.31-3.27,2.74-4.97,4.24c-0.04,0.04-0.08,0.07-0.13,0.11c-17.05,15.44-22.95,29.05-23.57,30.55
									c-1.77,4.31-0.9,9.24,2.22,12.69l64.31,71.08l0.65,0.72c2.38,2.63,5.66,3.96,8.95,3.96c2.89,0,5.79-1.03,8.1-3.12
									l10.09-9.13l18.38-16.59l20.19-18.28c2.38-2.15,3.8-5.16,3.96-8.36c0.16-3.2-0.96-6.33-3.11-8.71l-14.69-16.22l-50.32-55.62
									C423,428.52,419.72,427.12,416.37,427.12L416.37,427.12z"/>
							</g>
						</g>
						<path class="st3" d="M410.56,441.82l51.73,58.05l4.41-5.05l-50.32-55.63C416.37,439.2,414.14,440.03,410.56,441.82z"/>
						<path class="st4" d="M367.77,483.27l64.31,71.08c3.7-2.94,7.34-5.75,10.73-8.43c10.98-8.62,19.48-15.39,19.48-15.39
							l-1.09-1.21L393,453.06c-1.53,1.28-3.13,2.62-4.73,4.02C372.75,471.14,367.77,483.27,367.77,483.27z"/>
						<polyline class="st2" points="438.76,531.94 375.94,463.72 366.8,472.86 426.26,536.06 						"/>
						<g>
							<path class="st4" d="M1316.98,1504.76c-1.2,0-2.4-0.36-3.44-1.08l-150.4-104.38c-1.38-0.96-2.29-2.44-2.53-4.09
								c-0.24-1.66,0.22-3.34,1.26-4.65l31.14-38.86c0.4-0.5,0.88-0.94,1.42-1.29l41.76-27.12c0.99-0.64,2.13-0.97,3.29-0.97
								c0.49,0,0.98,0.06,1.46,0.18c1.63,0.4,3.01,1.46,3.82,2.93l88.93,160.02c1.37,2.46,0.86,5.53-1.23,7.41l-11.43,10.35
								C1319.89,1504.23,1318.44,1504.76,1316.98,1504.76z"/>
							<g>
								<path class="st2" d="M1239.48,1328.35l88.93,160.02l-11.43,10.35l-150.4-104.38l31.14-38.86L1239.48,1328.35
									 M1239.48,1316.27c-2.32,0-4.6,0.67-6.58,1.95l-41.76,27.12c-1.08,0.7-2.04,1.57-2.85,2.58l-31.14,38.86
									c-2.09,2.61-3.01,5.98-2.53,9.29c0.48,3.31,2.32,6.28,5.07,8.19l150.4,104.38c2.08,1.44,4.49,2.16,6.89,2.16
									c2.92,0,5.82-1.05,8.11-3.12l11.43-10.35c4.17-3.77,5.18-9.92,2.45-14.83l-88.93-160.02c-1.63-2.93-4.4-5.05-7.64-5.86
									C1241.43,1316.38,1240.45,1316.27,1239.48,1316.27L1239.48,1316.27z"/>
							</g>
						</g>
						<polyline class="st1" points="1247.5,1351.76 1320.84,1481.65 1219.1,1376.83 						"/>
						<polyline class="st3" points="1245.86,1362.51 1320.84,1481.65 1236.28,1369.45 						"/>
						<polyline class="st2" points="1215.66,1385.36 1327.89,1496.88 1323.97,1498.17 1195.84,1401.22 						"/>
						<g>
							<path class="st1" d="M1166.58,1400.37c-0.1,0-0.2,0-0.3-0.01c-1.6-0.08-3.1-0.79-4.18-1.98L482.14,647.19
								c-2.24-2.47-2.05-6.29,0.42-8.53l72.89-65.98c1.11-1.01,2.56-1.56,4.05-1.56c0.1,0,0.2,0,0.3,0.01
								c1.6,0.08,3.1,0.79,4.18,1.98l679.97,751.2c2.24,2.47,2.05,6.29-0.42,8.53l-72.9,65.98
								C1169.52,1399.82,1168.08,1400.37,1166.58,1400.37z"/>
							<g>
								<path class="st2" d="M559.51,577.15l679.97,751.2l-72.9,65.98l-679.97-751.2L559.51,577.15 M559.51,565.07
									c-2.99,0-5.88,1.11-8.11,3.12l-72.9,65.98c-4.95,4.48-5.33,12.12-0.85,17.07l679.97,751.2c2.15,2.38,5.16,3.8,8.36,3.96
									c0.2,0.01,0.4,0.02,0.6,0.02c2.99,0,5.88-1.11,8.11-3.12l72.9-65.98c4.95-4.48,5.33-12.12,0.85-17.07l-679.97-751.2
									c-2.15-2.38-5.16-3.8-8.36-3.96C559.91,565.08,559.71,565.07,559.51,565.07L559.51,565.07z"/>
							</g>
						</g>
						<g>
							<path class="st1" d="M486.63,649.16c-1.65,0-3.29-0.67-4.48-1.99l-59.59-65.78c-3.93-4.32-6.58-9.6-7.64-15.27
								c-2.31-11.03,1.48-22.63,9.91-30.3l29.41-26.67c0.33-0.33,0.65-0.57,0.9-0.74l3.64-3.35c6.02-5.41,13.71-8.37,21.73-8.37
								c9.12,0,17.85,3.87,23.95,10.61l59.52,65.78c2.24,2.47,2.05,6.29-0.42,8.53l-15.71,14.24l-57.16,51.73
								C489.52,648.65,488.07,649.16,486.63,649.16z"/>
							<g>
								<path class="st2" d="M480.5,502.75c7.17,0,14.29,2.91,19.47,8.62l52.88,58.44l6.64,7.34l-15.71,14.24l-57.16,51.73
									l-59.59-65.78c-3.26-3.58-5.36-7.92-6.19-12.39c-1.85-8.75,0.96-18.2,8.05-24.65l29.5-26.76c0,0,0,0,0.06-0.06
									c0.06-0.06,0.19-0.13,0.38-0.26l4.02-3.7C467.91,504.98,474.22,502.75,480.5,502.75 M480.5,490.67
									c-9.51,0-18.64,3.51-25.72,9.87c-0.03,0.03-0.07,0.06-0.1,0.09l-3.37,3.1c-0.37,0.28-0.79,0.61-1.21,1.02l-29.33,26.6
									c-10,9.1-14.5,22.86-11.78,35.96c1.28,6.75,4.43,13.03,9.11,18.17l59.56,65.76c2.38,2.63,5.67,3.97,8.96,3.97
									c2.89,0,5.79-1.03,8.1-3.12l57.16-51.73l15.72-14.25c4.94-4.48,5.32-12.11,0.85-17.06l-6.64-7.34l-52.88-58.44
									C501.68,495.26,491.32,490.67,480.5,490.67L480.5,490.67z"/>
							</g>
						</g>
						<path class="st3" d="M458.84,513.22c2.81-1.92,18.9-12.01,31.04-3.32c13.35,9.58,59.65,63.03,59.65,63.03l3.32-3.13
							l-52.88-58.43c-9.71-10.73-26.31-11.56-37.1-1.85L458.84,513.22z"/>
						<path class="st4" d="M420.84,564.95c0.83,4.47,2.94,8.81,6.19,12.39l59.59,65.78l57.16-51.73
							c-18.27-19.1-63.74-66.42-67.89-69.55c-5.3-3.96-4.66-11.94-4.66-11.94s-37.61,31.74-44.26,40.36
							C420.33,558.82,420.84,564.95,420.84,564.95z"/>
						<path class="st2" d="M535.15,591.78c-40.84-29.07-62.43-61.22-62.43-61.22l-16.3,40.96c0,0,10.13-19.25,17.18-16.45
							c7.05,2.8,42.53,31.98,46.37,44.25"/>
						<g>
							<path class="st1" d="M659.63,882.58c-1.65,0-3.29-0.67-4.48-1.99c0,0-87.94-97.2-154.04-170.19
								c-15.81-17.47-30.37-33.55-42.17-46.59c-16.11-17.79-26.75-29.55-29-32.05c-13.1-14.48-9.55-56.31-4.97-63.97
								c1.09-1.86,3.42-4.43,8.59-9.42c3.12-2.92,6.67-6.23,10.17-9.47c0.06-0.07,0.13-0.13,0.2-0.19
								c8.45-7.62,16.75-14.77,16.84-14.85c1.12-0.96,2.52-1.46,3.94-1.46c0.82,0,1.64,0.17,2.42,0.51c2.13,0.93,3.53,3,3.61,5.33
								c0.8,23.33,3.54,51.47,6.55,56.25c0.5,0.73,3.77,4.87,22.61,26.31c56.23,64.06,196.9,220.69,198.32,222.26
								c1.08,1.21,1.64,2.8,1.53,4.42c-0.1,1.62-0.85,3.13-2.08,4.19l-34.1,29.44C662.44,882.1,661.03,882.58,659.63,882.58z"/>
							<path class="st2" d="M464.72,538.45c0,0,1.72,50.13,7.47,59.27c1.09,1.72,9.77,11.82,23.18,27.08
								c56.9,64.82,198.36,222.31,198.36,222.31l-34.1,29.44c0,0-87.94-97.2-154.04-170.2c-37.04-40.94-67.25-74.27-71.14-78.62
								c-10.92-12.07-7.6-51.28-4.28-56.84c0.9-1.53,3.83-4.53,7.6-8.17c3.07-2.87,6.64-6.19,10.15-9.45h0.06v-0.06
								C456.48,545.54,464.72,538.45,464.72,538.45 M464.72,526.37c-2.84,0-5.65,1-7.88,2.92c-0.34,0.29-8.44,7.27-16.94,14.94
								c-0.11,0.1-0.22,0.2-0.33,0.31c-3.43,3.18-7.02,6.52-10.06,9.36c-0.04,0.04-0.09,0.08-0.13,0.13
								c-5.7,5.51-8.14,8.23-9.6,10.71c-4.98,8.4-4.91,29.83-4.89,32.25c0.18,18.18,3.74,31.24,10.57,38.82
								c2.26,2.51,12.83,14.2,28.84,31.88c11.83,13.07,26.45,29.22,42.33,46.77c65.34,72.16,153.16,169.22,154.04,170.2
								c2.38,2.63,5.67,3.98,8.96,3.98c2.8,0,5.61-0.97,7.89-2.94l34.1-29.44c2.46-2.12,3.96-5.14,4.16-8.38
								c0.21-3.24-0.9-6.42-3.07-8.84c-1.41-1.57-142.06-158.18-198.27-222.21c-16.67-18.97-20.91-24.12-21.98-25.5
								c-0.52-1.29-2.48-7.41-4.23-28.77c-1.04-12.77-1.45-24.4-1.45-24.52c-0.16-4.64-2.97-8.79-7.23-10.65
								C468.01,526.7,466.36,526.37,464.72,526.37L464.72,526.37z"/>
						</g>
						<path class="st3" d="M458.84,562.72c-1.15,3.58-0.58,18.01,2.24,21.08c2.87,3.13,2.43-11.88,2.43-11.88s2.68,23.57,4.41,27.4
							c1.28,2.68,17.82,17.18,27.46,25.48c-13.41-15.26-22.1-25.35-23.18-27.08c-5.75-9.13-7.47-59.27-7.47-59.27
							s-8.24,7.09-16.73,14.75l13.35-8.81l0.96,20.56C462.29,564.95,459.99,559.14,458.84,562.72z"/>
						<path class="st4" d="M434.45,627.73c3.9,4.34,34.1,37.68,71.14,78.62c14.43-16.8,26.44-38.83,26.44-38.83l-67.06-68.21
							c0,0-10.27,19.26-24.12,12.36c-2.62-1.28-3.08-48.96-3.08-48.96c-3.77,3.64-6.7,6.64-7.6,8.17
							C426.85,576.45,423.52,615.66,434.45,627.73z"/>
					</g>
				</g>
				<g>
					<g>
						<g>
							<path class="st1" d="M1567.28,561.09c-1.45,0-2.9-0.52-4.05-1.56l-10.09-9.13l-18.39-16.6l-20.19-18.27
								c-1.19-1.08-1.9-2.58-1.98-4.18c-0.08-1.6,0.48-3.17,1.56-4.35l14.69-16.22l50.32-55.62c1.17-1.29,2.8-1.99,4.48-1.99
								c0.71,0,1.42,0.12,2.1,0.38c0.1,0.04,2.58,0.97,6.41,2.88c4.54,2.3,11.41,6.22,18.61,11.9c0.04,0.03,0.08,0.07,0.12,0.1
								c1.55,1.29,3.21,2.68,4.85,4.13c16.41,14.85,21.87,27.88,22.1,28.42c0.88,2.15,0.45,4.62-1.11,6.35l-64.95,71.79
								C1570.56,560.43,1568.92,561.09,1567.28,561.09z"/>
							<g>
								<path class="st2" d="M1583.63,439.2c0,0,2.24,0.83,5.81,2.62c4.41,2.24,10.86,5.94,17.56,11.24
									c1.53,1.28,3.13,2.62,4.73,4.02c15.52,14.05,20.5,26.18,20.5,26.18l-64.31,71.08l-0.64,0.7l-10.09-9.13l-18.39-16.6
									l-20.18-18.27l14.69-16.22L1583.63,439.2 M1583.63,427.12c-3.35,0-6.63,1.4-8.96,3.98l-50.32,55.63l-14.69,16.22
									c-2.15,2.38-3.27,5.51-3.11,8.71c0.16,3.2,1.58,6.21,3.96,8.36l20.18,18.27l18.4,16.61l10.08,9.12
									c2.31,2.09,5.21,3.12,8.1,3.12c3.29,0,6.56-1.33,8.95-3.96l0.64-0.7l64.32-71.1c3.12-3.45,3.99-8.39,2.22-12.69
									c-0.62-1.5-6.51-15.11-23.57-30.55c-0.04-0.04-0.08-0.08-0.13-0.11c-1.7-1.5-3.4-2.92-4.97-4.24
									c-0.08-0.07-0.16-0.13-0.24-0.2c-7.59-6-14.84-10.13-19.59-12.54c-0.02-0.01-0.04-0.02-0.06-0.03
									c-4.04-2.02-6.72-3.03-7.01-3.14C1586.46,427.37,1585.04,427.12,1583.63,427.12L1583.63,427.12z"/>
							</g>
						</g>
						<path class="st3" d="M1589.44,441.82l-51.73,58.05l-4.41-5.05l50.32-55.63C1583.63,439.2,1585.86,440.03,1589.44,441.82z"/>
						<path class="st4" d="M1632.23,483.27l-64.31,71.08c-3.7-2.94-7.34-5.75-10.73-8.43c-10.98-8.62-19.48-15.39-19.48-15.39
							l1.09-1.21l68.21-76.25c1.53,1.28,3.13,2.62,4.73,4.02C1627.25,471.14,1632.23,483.27,1632.23,483.27z"/>
						<polyline class="st2" points="1561.24,531.94 1624.06,463.72 1633.2,472.86 1573.74,536.06 						"/>
						<g>
							<path class="st4" d="M683.02,1504.76c-1.46,0-2.91-0.53-4.06-1.56l-11.43-10.35c-2.08-1.88-2.59-4.96-1.23-7.41l88.93-160.02
								c0.81-1.46,2.2-2.52,3.82-2.93c0.48-0.12,0.97-0.18,1.46-0.18c1.16,0,2.3,0.33,3.29,0.97l41.76,27.12
								c0.54,0.35,1.02,0.79,1.42,1.29l31.14,38.86c1.05,1.31,1.5,2.99,1.26,4.65c-0.24,1.66-1.16,3.14-2.53,4.09l-150.4,104.38
								C685.42,1504.4,684.22,1504.76,683.02,1504.76z"/>
							<g>
								<path class="st2" d="M760.52,1328.35l41.76,27.12l31.14,38.86l-150.4,104.38l-11.43-10.35L760.52,1328.35 M760.52,1316.27
									c-0.97,0-1.95,0.12-2.92,0.36c-3.25,0.81-6.02,2.93-7.64,5.86l-88.93,160.02c-2.73,4.91-1.71,11.06,2.45,14.83l11.43,10.35
									c2.29,2.07,5.19,3.12,8.11,3.12c2.4,0,4.8-0.71,6.89-2.16l150.4-104.38c2.75-1.91,4.59-4.87,5.07-8.19
									c0.48-3.31-0.43-6.68-2.53-9.29l-31.14-38.86c-0.81-1.01-1.77-1.88-2.85-2.58l-41.76-27.12
									C765.13,1316.93,762.84,1316.27,760.52,1316.27L760.52,1316.27z"/>
							</g>
						</g>
						<polyline class="st1" points="752.5,1351.76 679.15,1481.65 780.9,1376.83 						"/>
						<polyline class="st3" points="754.14,1362.51 679.15,1481.65 763.72,1369.45 						"/>
						<polyline class="st2" points="784.34,1385.36 672.11,1496.88 676.03,1498.17 804.16,1401.22 						"/>
						<g>
							<path class="st1" d="M833.41,1400.37c-1.49,0-2.94-0.55-4.05-1.56l-72.89-65.98c-2.47-2.24-2.66-6.06-0.42-8.53l679.96-751.2
								c1.08-1.19,2.58-1.9,4.18-1.98c0.1,0,0.2-0.01,0.3-0.01c1.5,0,2.94,0.55,4.05,1.56l72.9,65.98c2.47,2.24,2.66,6.06,0.42,8.53
								l-679.97,751.19c-1.08,1.19-2.58,1.9-4.18,1.98C833.62,1400.37,833.52,1400.37,833.41,1400.37z"/>
							<g>
								<path class="st2" d="M1440.49,577.15l72.9,65.98l-679.97,751.2l-72.9-65.98L1440.49,577.15 M1440.49,565.07
									c-0.2,0-0.4,0-0.6,0.02c-3.2,0.16-6.21,1.58-8.36,3.96l-679.97,751.2c-4.48,4.95-4.1,12.59,0.85,17.07l72.9,65.98
									c2.23,2.02,5.12,3.12,8.11,3.12c0.2,0,0.4-0.01,0.6-0.02c3.2-0.16,6.21-1.58,8.36-3.96l679.97-751.2
									c4.48-4.95,4.1-12.59-0.85-17.07l-72.9-65.98C1446.37,566.18,1443.48,565.07,1440.49,565.07L1440.49,565.07z"/>
							</g>
						</g>
						<g>
							<path class="st1" d="M1513.38,649.16c-1.45,0-2.9-0.52-4.05-1.56l-57.16-51.73l-15.71-14.25c-2.47-2.24-2.66-6.06-0.42-8.53
								l59.52-65.78c6.1-6.74,14.83-10.61,23.95-10.61c8.01,0,15.71,2.96,21.68,8.32l3.69,3.4c0.25,0.17,0.57,0.41,0.91,0.74
								l29.39,26.66c8.43,7.67,12.22,19.27,9.91,30.3c-1.07,5.67-3.71,10.95-7.65,15.28l-59.57,65.77
								C1516.66,648.49,1515.02,649.16,1513.38,649.16z"/>
							<g>
								<path class="st2" d="M1519.5,502.75c6.28,0,12.59,2.23,17.64,6.77l4.02,3.7c0.19,0.13,0.32,0.19,0.38,0.26
									c0.06,0.06,0.06,0.06,0.06,0.06l29.5,26.76c7.09,6.45,9.9,15.9,8.05,24.65c-0.83,4.47-2.94,8.81-6.19,12.39l-59.59,65.78
									l-57.16-51.73l-15.71-14.24l6.64-7.34l52.88-58.44C1505.2,505.65,1512.33,502.75,1519.5,502.75 M1519.5,490.67
									L1519.5,490.67c-10.82,0-21.18,4.59-28.43,12.6l-52.88,58.43l-6.64,7.35c-4.47,4.95-4.09,12.58,0.85,17.06l15.71,14.24
									l57.16,51.74c2.31,2.09,5.21,3.12,8.1,3.12c3.29,0,6.57-1.34,8.96-3.97l59.59-65.78c4.66-5.12,7.81-11.4,9.09-18.15
									c2.72-13.1-1.78-26.86-11.77-35.94l-29.34-26.61c-0.43-0.41-0.84-0.75-1.22-1.03l-3.37-3.1c-0.03-0.03-0.07-0.06-0.1-0.09
									C1538.14,494.17,1529,490.67,1519.5,490.67L1519.5,490.67z"/>
							</g>
						</g>
						<path class="st3" d="M1541.16,513.22c-2.81-1.92-18.9-12.01-31.04-3.32c-13.35,9.58-59.65,63.03-59.65,63.03l-3.32-3.13
							l52.88-58.43c9.71-10.73,26.31-11.56,37.1-1.85L1541.16,513.22z"/>
						<path class="st4" d="M1579.16,564.95c-0.83,4.47-2.94,8.81-6.19,12.39l-59.59,65.78l-57.16-51.73
							c18.27-19.1,63.74-66.42,67.89-69.55c5.3-3.96,4.66-11.94,4.66-11.94s37.61,31.74,44.26,40.36
							C1579.67,558.82,1579.16,564.95,1579.16,564.95z"/>
						<path class="st2" d="M1464.85,591.78c40.84-29.07,62.43-61.22,62.43-61.22l16.3,40.96c0,0-10.13-19.25-17.18-16.45
							c-7.05,2.8-42.53,31.98-46.37,44.25"/>
						<g>
							<path class="st1" d="M1340.37,882.58c-1.4,0-2.81-0.48-3.95-1.47l-34.1-29.44c-1.23-1.06-1.98-2.57-2.08-4.19
								c-0.1-1.62,0.45-3.21,1.54-4.42c1.41-1.57,142.08-158.2,198.31-222.26c18.84-21.45,22.11-25.58,22.64-26.36
								c2.98-4.74,5.71-32.88,6.52-56.21c0.08-2.32,1.48-4.39,3.61-5.33c0.78-0.34,1.6-0.51,2.42-0.51c1.42,0,2.82,0.5,3.94,1.46
								c0.08,0.07,8.39,7.22,16.84,14.85c0.07,0.07,0.14,0.13,0.21,0.2c3.49,3.24,7.04,6.53,10.09,9.39
								c5.23,5.05,7.57,7.62,8.68,9.54c4.55,7.61,8.1,49.44-5.02,63.94c-2.23,2.49-12.91,14.28-29.07,32.13
								c-11.79,13.02-26.31,29.06-42.07,46.48c-66.1,73-154.04,170.2-154.04,170.2C1343.66,881.91,1342.02,882.58,1340.37,882.58z"
								/>
							<path class="st2" d="M1535.28,538.45c0,0,8.24,7.09,16.73,14.75v0.06h0.06c3.51,3.26,7.09,6.58,10.15,9.45
								c3.77,3.64,6.7,6.64,7.6,8.17c3.32,5.56,6.64,44.77-4.28,56.84c-3.9,4.34-34.1,37.68-71.15,78.62
								c-66.1,73-154.04,170.2-154.04,170.2l-34.1-29.44c0,0,141.46-157.49,198.36-222.31c13.41-15.26,22.1-25.35,23.18-27.08
								C1533.56,588.58,1535.28,538.45,1535.28,538.45 M1535.28,526.37c-1.64,0-3.29,0.33-4.85,1.02
								c-4.26,1.86-7.07,6.01-7.23,10.65c0,0.12-0.41,11.75-1.45,24.52c-1.74,21.36-3.71,27.48-4.23,28.77
								c-1.07,1.38-5.31,6.53-21.97,25.5c-56.21,64.03-196.86,220.64-198.27,222.21c-2.17,2.41-3.27,5.6-3.07,8.84
								c0.21,3.24,1.71,6.26,4.16,8.38l34.1,29.44c2.28,1.97,5.09,2.94,7.89,2.94c3.3,0,6.58-1.34,8.96-3.98
								c0.88-0.97,88.69-98.03,154.04-170.19c15.87-17.54,30.49-33.68,42.31-46.75c16.02-17.69,26.61-29.39,28.86-31.9
								c6.84-7.58,10.39-20.64,10.57-38.82c0.02-2.42,0.09-23.85-4.89-32.25c-1.46-2.48-3.9-5.2-9.6-10.71
								c-0.04-0.04-0.09-0.08-0.13-0.13c-3.06-2.86-6.63-6.19-10.06-9.36c-0.11-0.11-0.22-0.21-0.33-0.31
								c-8.5-7.67-16.6-14.65-16.94-14.94C1540.93,527.37,1538.12,526.37,1535.28,526.37L1535.28,526.37z"/>
						</g>
						<path class="st3" d="M1541.16,562.72c1.15,3.58,0.58,18.01-2.24,21.08c-2.87,3.13-2.43-11.88-2.43-11.88
							s-2.68,23.57-4.41,27.4c-1.28,2.68-17.82,17.18-27.46,25.48c13.41-15.26,22.1-25.35,23.18-27.08
							c5.75-9.13,7.47-59.27,7.47-59.27s8.24,7.09,16.73,14.75l-13.35-8.81l-0.96,20.56
							C1537.71,564.95,1540.01,559.14,1541.16,562.72z"/>
						<path class="st4" d="M1565.55,627.73c-3.9,4.34-34.1,37.68-71.14,78.62c-14.43-16.8-26.44-38.83-26.44-38.83l67.06-68.21
							c0,0,10.27,19.26,24.12,12.36c2.62-1.28,3.08-48.96,3.08-48.96c3.77,3.64,6.7,6.64,7.6,8.17
							C1573.15,576.45,1576.47,615.66,1565.55,627.73z"/>
					</g>
				</g>
				<g>
					<g>
						<path class="st2" d="M1000.01,1566.84c-1.02,0-2.04-0.26-2.96-0.78c-111.4-62.67-207.99-150.02-287.08-259.64
							c-63.2-87.59-115.42-189.51-155.22-302.92c-67.72-192.99-76.05-354.77-76.13-356.38c-0.05-1,0.16-2,0.59-2.91
							c1.05-2.18,26.61-53.98,104-106.2c45.19-30.49,98.82-54.77,159.4-72.17c75.5-21.68,162.11-32.68,257.4-32.68
							c95.28,0,181.87,10.99,257.37,32.68c60.57,17.4,114.2,41.68,159.38,72.17c77.38,52.22,102.94,104.02,103.99,106.2
							c0.44,0.91,0.64,1.9,0.59,2.91c-0.05,1.05-5.41,106.88-43,248.54c-22.08,83.2-50.8,162.36-85.36,235.3
							c-43.15,91.06-95.58,172.62-155.84,242.42c-0.17,0.24-0.35,0.47-0.55,0.68c-0.13,0.15-0.24,0.28-0.37,0.42
							c-10.43,12.07-21.43,24.13-32.71,35.85c-59.67,62.08-127.15,114.48-200.56,155.74
							C1002.06,1566.58,1001.04,1566.84,1000.01,1566.84z"/>
						<g>
							<path class="st2" d="M1000.01,439.21c415.25,0,515.3,207.63,515.3,207.63s-19.78,418.38-283.12,723.04v0.05
								c-0.17,0.17-0.28,0.33-0.44,0.49c-10.44,12.09-21.32,24.01-32.58,35.71c-55.93,58.18-121.75,111.15-199.16,154.66
								c-485.03-272.84-515.36-913.96-515.36-913.96S584.71,439.21,1000.01,439.21 M1000.01,427.13
								c-95.86,0-183.02,11.07-259.07,32.91c-61.19,17.57-115.39,42.12-161.11,72.97c-78.73,53.12-104.98,106.34-106.06,108.58
								c-0.87,1.81-1.28,3.81-1.18,5.82c0.08,1.66,2.05,41.49,12.46,105.8c9.59,59.21,28.47,151.05,64,252.3
								c39.99,113.96,92.48,216.39,156.02,304.45c79.61,110.33,176.85,198.27,289.02,261.37c1.84,1.03,3.88,1.55,5.92,1.55
								c2.04,0,4.08-0.52,5.92-1.55c73.92-41.55,141.87-94.31,201.95-156.82c11.32-11.76,22.37-23.87,32.85-35.99
								c0.15-0.16,0.28-0.31,0.4-0.45c0.28-0.31,0.54-0.63,0.79-0.96c60.53-70.16,113.19-152.1,156.52-243.55
								c34.72-73.27,63.57-152.79,85.74-236.34c19.72-74.3,30.4-138.14,35.9-178.61c5.97-44,7.25-70.1,7.3-71.19
								c0.09-2.01-0.31-4.01-1.18-5.82c-1.08-2.24-27.34-55.46-106.06-108.58c-45.71-30.85-99.91-55.4-161.09-72.97
								C1183.01,438.2,1095.86,427.13,1000.01,427.13L1000.01,427.13z"/>
						</g>
					</g>
					<g>
						<linearGradient id="SVGID_1_" gradientUnits="userSpaceOnUse" x1="999.9774" y1="1646.1669" x2="999.9774" y2="448.404">
							<stop  offset="0" style="stop-color:#006380"/>
							<stop  offset="0.5578" style="stop-color:#008080"/>
							<stop  offset="1" style="stop-color:#00B5B5"/>
						</linearGradient>
						<path class="st5" d="M1515.29,646.82c0,0-19.73,418.37-283.11,723.06v0.06c-0.13,0.13-0.25,0.32-0.45,0.45
							c-10.41,12.13-21.27,24.01-32.57,35.76c-55.94,58.18-121.72,111.12-199.13,154.61c-129.39-72.74-226.4-171.73-299.14-277.74
							c-0.26-0.38-0.51-0.77-0.7-1.15c-107.67-157.3-161.9-329.98-188.97-455.54c-2.36-10.79-4.47-21.2-6.39-31.23
							c-1.72-8.75-3.26-17.12-4.66-25.23c-1.92-10.6-3.51-20.63-4.98-30.08c-8.88-57.6-10.54-92.99-10.54-92.99
							s97.58-202.51,500.05-207.49h0.07c5.04-0.13,10.15-0.13,15.26-0.13C1415.28,439.2,1515.29,646.82,1515.29,646.82z"/>
						<path class="st0" d="M583.59,806.87v27.14l-83.41-64.12c-1.92-10.6-3.51-20.63-4.98-30.08L583.59,806.87z"/>
						<path class="st0" d="M583.59,854.89v27.08l-72.36-55.63c-2.36-10.79-4.47-21.2-6.39-31.23L583.59,854.89z"/>
						<path class="st0" d="M495.77,653.27c0,0,28.67,363.64,204.43,628.61C500.95,990.67,484.66,646.82,484.66,646.82
							s97.58-202.51,500.05-207.49C706.91,463.73,564.64,536.06,495.77,653.27z"/>
						<linearGradient id="SVGID_2_" gradientUnits="userSpaceOnUse" x1="1257.6649" y1="117.8914" x2="1257.6649" y2="1928.0612">
							<stop  offset="0" style="stop-color:#006380"/>
							<stop  offset="0.5578" style="stop-color:#008080"/>
							<stop  offset="1" style="stop-color:#00B5B5"/>
						</linearGradient>
						<path class="st6" d="M1515.32,646.84c0,0-19.78,418.38-283.12,723.04v0.05c-0.16,0.17-0.27,0.33-0.44,0.49
							c-10.44,12.09-21.32,24.01-32.58,35.71c-55.93,58.18-121.75,111.15-199.16,154.66V439.21
							C1415.27,439.21,1515.32,646.84,1515.32,646.84z"/>
						<path class="st7" d="M1416.44,806.87v27.14l83.41-64.12c1.92-10.6,3.51-20.63,4.98-30.08L1416.44,806.87z"/>
						<path class="st7" d="M1416.44,854.89v27.08l72.36-55.63c2.36-10.79,4.47-21.2,6.39-31.23L1416.44,854.89z"/>
						<path class="st7" d="M1504.26,653.27c0,0-28.67,363.64-204.43,628.61c199.26-291.22,215.54-635.06,215.54-635.06
							s-97.58-202.51-500.05-207.49C1293.12,463.73,1435.39,536.06,1504.26,653.27z"/>
						<g>
							<linearGradient id="SVGID_3_" gradientUnits="userSpaceOnUse" x1="512.5646" y1="997.9489" x2="1487.4257" y2="997.9489">
								<stop  offset="0" style="stop-color:#006380"/>
								<stop  offset="0.5578" style="stop-color:#008080"/>
								<stop  offset="1" style="stop-color:#00B5B5"/>
							</linearGradient>
							<path class="st8" d="M1000,466.68c-207.58,0-331.02,53.9-398.02,99.12c-47.85,32.29-73.76,64.38-84.94,80.63l-4.47,6.49
								l0.68,7.85c4.27,49.55,20.04,181.32,74.11,334.37c38.81,109.87,89.55,208.46,150.79,293.04
								c69.97,96.63,154.23,175.38,250.42,234.06l11.44,6.98l11.44-6.98c96.19-58.68,180.44-137.43,250.42-234.06
								c61.24-84.58,111.98-183.17,150.79-293.04c54.04-152.96,69.82-284.72,74.1-334.26l0.68-7.86l-4.47-6.5
								c-12-17.42-39.87-51.65-91.71-85.21C1324.53,518.14,1202.51,466.68,1000,466.68L1000,466.68z"/>
						</g>
						<g>
							<radialGradient id="SVGID_4_" cx="733.2343" cy="763.4127" r="851.0198" gradientUnits="userSpaceOnUse">
								<stop  offset="0" style="stop-color:#00CFCF"/>
								<stop  offset="0.5477" style="stop-color:#008080"/>
								<stop  offset="1" style="stop-color:#006380"/>
							</radialGradient>
							<path class="st9" d="M999.98,1496.41c-91.61-56.48-172.05-132.05-239.13-224.64c-42.08-58.13-79.29-123.45-110.62-194.13
								c-13.23-29.73-25.51-60.6-36.48-91.78c-52.15-147.71-67.95-275.17-72.42-325.29c10.78-15.18,34.21-43.15,76.29-71.5
								c63.77-43.06,181.86-94.38,382.36-94.38c117.87,0,220.09,17.7,303.84,52.61c26.32,10.92,50.6,23.56,72.16,37.55
								c46.21,29.88,71.28,59.69,82.66,75.84c-4.45,50.08-20.22,177.45-72.42,325.17c-37.85,107.26-87.32,203.45-147.04,285.92
								C1172.08,1364.38,1091.62,1439.95,999.98,1496.41z"/>
							<path class="st2" d="M999.98,500.72c117.07,0,218.51,17.54,301.53,52.15c25.97,10.78,49.92,23.24,71.19,37.05
								c43.7,28.26,68.05,56.33,79.71,72.45c-2.05,22.28-6.79,63.91-17.01,117.5c-13.38,70.14-31.85,138.77-54.89,203.97
								c-37.66,106.71-86.86,202.39-146.24,284.38c-65.85,90.9-144.66,165.25-234.3,221.08c-89.62-55.85-168.4-130.2-234.24-221.08
								c-41.83-57.79-78.84-122.74-110-193.06c-13.16-29.57-25.37-60.29-36.3-91.33c-23.03-65.24-41.5-133.92-54.89-204.13
								c-10.21-53.53-14.95-95.15-17.01-117.45c11.05-15.17,33.76-41.45,73.46-68.2C684.06,551.48,801,500.72,999.98,500.72
								 M999.98,488.63c-202,0-321.23,51.86-385.74,95.41c-45.02,30.34-68.97,60.16-79.13,74.85
								c3.7,42.79,18.84,175.75,72.93,328.96c11.18,31.74,23.44,62.52,36.66,92.22c31.61,71.34,68.91,136.73,111.25,195.23
								c68.33,94.33,150.34,171.03,244.02,228.18c93.75-57.16,175.75-133.86,244.09-228.18c60.03-82.9,109.78-179.58,147.85-287.45
								c54.09-153.08,69.23-285.92,72.93-328.83c-10.73-15.65-36.59-47.58-85.58-79.26c-19.29-12.52-43.43-25.74-73.12-38.06
								C1237.04,512.9,1137.86,488.63,999.98,488.63L999.98,488.63z"/>
						</g>
						<g class="st10">
							<path class="st2" d="M1336.92,591.71c8.71,4.75,17.05,9.71,25,14.88c36.58,23.65,58.63,47.27,69.98,61.6
								c-4.93,48.56-21.35,171.07-70.11,309.05c-37.02,104.91-85.33,198.9-143.59,279.34c-61.75,85.24-135.1,155.55-218.22,209.22
								c-83.1-53.69-156.43-124-218.16-209.21c-30.44-42.05-58.29-88-83.13-137.12c25.64,2.52,50.74,3.79,75.08,3.79
								c162.06,0,296.09-54.21,398.36-161.13C1276.45,853.06,1327.84,704.01,1336.92,591.71"/>
						</g>
						<g>
							<g>
								<g>
									<path class="st2" d="M1412.65,995.15c9.17-27.79,17.83-55.73,25.57-83.93c7.56-28.25,14.6-56.62,20.68-85.21
										c6.11-28.58,11.31-57.34,15.69-86.22l1.64-10.83l1.5-10.85c1.04-7.23,1.86-14.48,2.79-21.72c1.71-14.51,3.09-29,4.29-43.59
										l0.46,1.72l-4.81-6.96c-1.59-2.29-3.24-4.53-4.91-6.77c-3.37-4.44-6.92-8.76-10.55-13c-7.33-8.44-15.17-16.45-23.38-24.06
										c-8.21-7.61-16.81-14.8-25.68-21.65c-8.89-6.82-18.09-13.24-27.5-19.33c-18.88-12.11-38.73-22.69-59.13-32.08
										c-20.45-9.3-41.5-17.26-62.85-24.31c-42.84-13.69-86.93-23.61-131.58-29.7l-16.77-2.07l-8.39-1.05l-4.19-0.54l-4.21-0.39
										l-16.84-1.57l-8.42-0.79l-4.21-0.38l-4.22-0.25l-16.89-1.01l-8.45-0.5c-2.82-0.17-5.63-0.36-8.45-0.4l-33.84-1.02
										l33.87,0.05c2.82-0.02,5.64,0.11,8.46,0.21l8.46,0.32l16.93,0.63l4.23,0.16l4.23,0.29l8.45,0.6l16.91,1.2l4.23,0.3
										l4.21,0.44l8.43,0.91l16.85,1.85l2.11,0.23l2.1,0.3l4.2,0.61l8.39,1.22c5.59,0.84,11.2,1.57,16.78,2.49l16.69,3.03
										l8.35,1.52c1.4,0.23,2.78,0.54,4.16,0.85l4.14,0.91l16.58,3.63c1.38,0.31,2.77,0.58,4.14,0.93l4.11,1.06l8.22,2.12
										l8.22,2.12c1.37,0.36,2.75,0.69,4.11,1.07l4.07,1.21l16.27,4.89c21.56,6.96,42.84,14.83,63.56,24.08
										c20.64,9.4,40.73,20.08,59.89,32.3c9.55,6.15,18.89,12.63,27.92,19.53c9,6.94,17.7,14.28,26.03,22.03
										c8.32,7.75,16.28,15.92,23.73,24.54c3.7,4.33,7.31,8.75,10.75,13.3c1.7,2.29,3.39,4.6,5.01,6.95l4.8,6.98l0.54,0.78
										l-0.08,0.94c-1.24,14.58-2.78,29.2-4.58,43.74c-0.98,7.26-1.85,14.54-2.95,21.79l-1.58,10.88l-1.72,10.86
										c-4.67,28.94-10.35,57.7-16.84,86.26c-6.52,28.56-13.79,56.95-22.09,85.03C1431.89,939.86,1422.73,967.67,1412.65,995.15z"
										/>
								</g>
							</g>
						</g>
						<g>
							<g>
								<g>
									<path class="st2" d="M1000.03,466.68l-33.84,1.02c-2.82,0.04-5.63,0.23-8.45,0.4l-8.45,0.5l-16.89,1.01l-4.22,0.25
										l-4.21,0.38l-8.42,0.78l-16.84,1.57l-4.21,0.39l-4.19,0.54l-8.39,1.06l-16.77,2.07c-44.65,6.09-88.75,16-131.59,29.7
										c-21.35,7.06-42.4,15.01-62.85,24.31c-20.4,9.4-40.25,19.98-59.13,32.09c-9.41,6.09-18.62,12.51-27.5,19.33
										c-8.86,6.86-17.47,14.04-25.67,21.66c-8.21,7.61-16.04,15.62-23.38,24.06c-3.64,4.24-7.18,8.56-10.55,13
										c-1.67,2.24-3.32,4.48-4.91,6.77l-4.81,6.96l0.46-1.72c0.63,7.3,1.22,14.56,1.95,21.82c0.69,7.26,1.53,14.51,2.34,21.77
										c0.92,7.24,1.74,14.5,2.79,21.72l1.5,10.85l1.64,10.83c4.38,28.88,9.57,57.64,15.69,86.22
										c6.08,28.59,13.12,56.96,20.68,85.21c7.74,28.2,16.39,56.14,25.56,83.93c-10.08-27.47-19.24-55.29-27.64-83.34
										c-8.31-28.08-15.57-56.47-22.09-85.03c-6.49-28.57-12.18-57.33-16.84-86.26l-1.72-10.86l-1.58-10.88
										c-1.1-7.25-1.97-14.52-2.95-21.79c-1.8-14.54-3.35-29.16-4.58-43.74l-0.08-0.95l0.54-0.78l4.8-6.98
										c1.63-2.35,3.31-4.66,5.01-6.95c3.44-4.55,7.05-8.97,10.75-13.3c7.45-8.62,15.41-16.78,23.73-24.54
										c8.33-7.75,17.02-15.09,26.04-22.02c9.03-6.9,18.38-13.38,27.92-19.53c19.16-12.21,39.24-22.9,59.89-32.29
										c20.72-9.25,42-17.12,63.56-24.08l16.27-4.89l4.07-1.21c1.36-0.38,2.74-0.71,4.11-1.07l8.22-2.12l8.22-2.12l4.11-1.06
										c1.37-0.35,2.76-0.62,4.14-0.93l16.58-3.63l4.14-0.91c1.38-0.31,2.76-0.61,4.16-0.85l8.35-1.52l16.69-3.03
										c5.58-0.92,11.19-1.65,16.78-2.49l8.39-1.22l4.2-0.61l2.1-0.3l2.11-0.23l16.85-1.85l8.43-0.9l4.21-0.44l4.23-0.3l16.91-1.2
										l8.45-0.6l4.23-0.29l4.23-0.16l16.93-0.63l8.46-0.32c2.82-0.11,5.64-0.24,8.46-0.21L1000.03,466.68z"/>
								</g>
							</g>
						</g>
						<g>
							<path class="st2" d="M738.14,1288.18c9.03,11.91,18.14,23.74,27.64,35.25l7.12,8.63l7.29,8.49l3.65,4.24l3.72,4.18l7.46,8.34
								c10.07,11,20.23,21.92,30.81,32.42c2.62,2.65,5.25,5.29,7.94,7.88l8,7.81c5.43,5.1,10.8,10.27,16.34,15.26
								c10.99,10.06,22.24,19.84,33.7,29.36c11.46,9.51,23.15,18.75,35.08,27.67c11.93,8.91,24.05,17.56,36.43,25.82
								c6.2,4.11,12.44,8.17,18.77,12.06c6.31,3.89,12.74,7.72,19.18,11.21h-2.56c6.43-3.49,12.87-7.32,19.18-11.21
								c6.33-3.9,12.57-7.95,18.77-12.06c12.38-8.26,24.51-16.9,36.43-25.82c23.85-17.84,46.78-36.92,68.78-57.02
								c5.54-4.98,10.91-10.15,16.34-15.25c5.31-5.22,10.72-10.36,15.93-15.69c10.58-10.5,20.75-21.42,30.81-32.42l7.46-8.34
								l3.72-4.18l3.65-4.24l7.29-8.49l7.13-8.63c9.5-11.51,18.61-23.34,27.64-35.25l-6.46,9.16c-2.16,3.04-4.27,6.13-6.52,9.12
								c-4.48,5.98-8.88,12.03-13.52,17.88l-6.9,8.84l-7.07,8.7l-3.54,4.35l-3.61,4.29l-7.25,8.57
								c-9.85,11.26-19.85,22.4-30.26,33.16c-5.12,5.46-10.48,10.68-15.74,16.01c-5.38,5.2-10.7,10.47-16.19,15.56
								c-5.42,5.16-11,10.16-16.54,15.2c-5.62,4.94-11.25,9.89-16.98,14.7c-11.44,9.67-23.12,19.06-35.04,28.13
								c-11.93,9.07-24.14,17.77-36.58,26.13c-6.24,4.16-12.51,8.27-18.89,12.22c-6.39,3.96-12.78,7.81-19.48,11.44l-1.28,0.7
								l-1.28-0.7c-6.69-3.64-13.08-7.49-19.48-11.45c-6.38-3.95-12.66-8.06-18.89-12.22c-12.44-8.37-24.66-17.06-36.58-26.14
								c-11.92-9.07-23.6-18.46-35.04-28.13c-5.74-4.81-11.36-9.76-16.98-14.71c-5.54-5.04-11.12-10.04-16.54-15.2
								c-5.5-5.08-10.81-10.36-16.2-15.56c-5.26-5.32-10.62-10.55-15.74-16.01c-10.41-10.76-20.41-21.9-30.26-33.16l-7.25-8.57
								l-3.61-4.29l-3.54-4.35l-7.07-8.7l-6.9-8.84c-4.65-5.85-9.05-11.9-13.52-17.88c-2.25-2.98-4.36-6.07-6.52-9.11
								L738.14,1288.18z"/>
						</g>
					</g>
				</g>
			</g>
			<g>
				<g>
					<g>
						<path class="st2" d="M879.22,1328.93c-2.88,0-5.36-2.03-5.92-4.85l-3.29-16.45l-3.32,16.45c-0.57,2.82-3.05,4.85-5.92,4.85
							h-20.01c-2.95,0-5.47-2.13-5.96-5.05l-17.71-106.22c-0.29-1.75,0.2-3.54,1.35-4.9c1.15-1.36,2.83-2.14,4.61-2.14h20.08
							c2.99,0,5.54,2.19,5.98,5.16l2.93,19.75l3.97-20.04c0.56-2.83,3.04-4.87,5.93-4.87h16.23c2.89,0,5.37,2.04,5.93,4.88
							l3.92,19.93l2.91-19.65c0.44-2.96,2.98-5.16,5.98-5.16h20.15c1.78,0,3.46,0.78,4.61,2.14c1.15,1.36,1.64,3.15,1.35,4.9
							l-17.78,106.22c-0.49,2.91-3.01,5.04-5.96,5.04H879.22z"/>
						<path class="st2" d="M917.02,1216.67l-17.78,106.22h-20.01l-9.2-45.91l-9.26,45.91h-20.01l-17.72-106.22h20.08l8.05,54.29
							l10.75-54.29h16.23l10.68,54.36l8.05-54.36H917.02 M917.02,1204.58h-20.15c-3.74,0-7.13,1.71-9.36,4.45
							c-2.24-2.74-5.63-4.45-9.36-4.45h-16.23c-3.75,0-7.16,1.72-9.4,4.49c-2.23-2.76-5.64-4.49-9.4-4.49h-20.08
							c-3.55,0-6.92,1.56-9.22,4.27c-2.3,2.71-3.28,6.29-2.7,9.8l17.72,106.22c0.97,5.83,6.01,10.09,11.92,10.09h20.01
							c3.66,0,6.99-1.64,9.23-4.28c2.24,2.64,5.57,4.28,9.23,4.28h20.01c5.9,0,10.94-4.27,11.92-10.09l17.78-106.22
							c0.59-3.5-0.4-7.09-2.69-9.8S920.57,1204.58,917.02,1204.58L917.02,1204.58z"/>
					</g>
					<g>
						<path class="st2" d="M960.57,1328.93c-3.34,0-6.04-2.71-6.04-6.04v-26.94l-3.08-3.08h-3.38v30.02c0,3.34-2.7,6.04-6.04,6.04
							H925.7c-3.34,0-6.04-2.71-6.04-6.04v-88.52c0-3.34,2.7-6.04,6.04-6.04h16.34c3.34,0,6.04,2.71,6.04,6.04v30.02h12.5
							c1.73,0,3.38,0.74,4.52,2.04l16.34,18.45c0.98,1.1,1.52,2.53,1.52,4v34.01c0,3.34-2.7,6.04-6.04,6.04H960.57z"/>
						<path class="st2" d="M942.04,1234.37v36.06h18.54l16.34,18.45v34.01h-16.34v-29.45c-2.58-2.58-4.03-4.03-6.62-6.62h-11.92
							v36.06H925.7v-88.52H942.04 M942.04,1222.29H925.7c-6.67,0-12.08,5.41-12.08,12.08v88.52c0,6.67,5.41,12.08,12.08,12.08h16.34
							c3.72,0,7.05-1.68,9.27-4.33c2.22,2.65,5.55,4.33,9.27,4.33h16.34c6.67,0,12.08-5.41,12.08-12.08v-34.01
							c0-2.95-1.08-5.8-3.04-8.01l-16.34-18.45c-2.29-2.59-5.59-4.07-9.04-4.07h-6.46v-23.98
							C954.12,1227.7,948.71,1222.29,942.04,1222.29L942.04,1222.29z"/>
					</g>
					<g>
						<path class="st2" d="M1001.14,1328.93c-5.98,0-11.26-2.22-15.68-6.59c-4.44-4.39-6.7-9.67-6.7-15.68v-56.01
							c0-6,2.25-11.28,6.68-15.69c4.42-4.4,9.71-6.63,15.7-6.63h18.59c5.93,0,11.21,2.23,15.7,6.63c4.51,4.45,6.79,9.75,6.79,15.75
							v55.9c0,6.06-2.28,11.36-6.78,15.76c-4.46,4.36-9.73,6.57-15.66,6.57H1001.14z M1013.75,1300.51v-43.76h-6.57v43.76H1013.75z"
							/>
						<path class="st2" d="M1019.74,1234.37c4.32,0,8.14,1.63,11.47,4.9c3.31,3.27,4.98,7.08,4.98,11.44v55.9
							c0,4.4-1.66,8.21-4.96,11.44s-7.12,4.85-11.44,4.85h-18.65c-4.36,0-8.17-1.62-11.44-4.85c-3.27-3.23-4.9-7.03-4.9-11.38
							v-56.01c0-4.36,1.63-8.16,4.9-11.41c3.27-3.25,7.08-4.87,11.44-4.87H1019.74 M1001.14,1306.55h18.65v-55.84h-18.65V1306.55
							 M1019.74,1222.29h-18.59c-7.54,0-14.44,2.9-19.96,8.39c-5.54,5.51-8.46,12.42-8.46,19.98v56.01c0,7.58,2.94,14.49,8.49,19.98
							c5.52,5.45,12.41,8.33,19.93,8.33h18.65c7.46,0,14.34-2.87,19.89-8.29c5.62-5.5,8.59-12.44,8.59-20.08v-55.9
							c0-7.57-2.97-14.5-8.58-20.04C1034.09,1225.18,1027.2,1222.29,1019.74,1222.29L1019.74,1222.29z"/>
					</g>
					<g>
						<path class="st2" d="M1044.08,1328.93c-3.34,0-6.04-2.71-6.04-6.04v-88.52c0-3.34,2.71-6.04,6.04-6.04h32.85
							c5.96,0,11.24,2.25,15.71,6.68c4.5,4.43,6.78,9.73,6.78,15.76v25.69c0,6.07-2.3,11.39-6.84,15.82
							c-4.5,4.39-9.79,6.62-15.71,6.62h-10.41v23.99c0,3.34-2.71,6.04-6.04,6.04H1044.08z M1071,1270.48v-13.72h-4.54v13.72H1071z"
							/>
						<path class="st2" d="M1076.93,1234.37c4.32,0,8.15,1.65,11.46,4.93c3.34,3.28,4.99,7.11,4.99,11.47v25.69
							c0,4.4-1.67,8.23-5.01,11.49s-7.18,4.9-11.49,4.9h-16.45v30.03h-16.34v-88.52H1076.93 M1060.42,1276.52h16.62v-25.81h-16.62
							V1276.52 M1076.93,1222.29h-32.85c-6.67,0-12.08,5.41-12.08,12.08v88.52c0,6.67,5.41,12.08,12.08,12.08h16.34
							c6.67,0,12.08-5.41,12.08-12.08v-17.95h4.37c7.45,0,14.35-2.88,19.94-8.34c5.66-5.53,8.66-12.49,8.66-20.14v-25.69
							c0-7.59-2.97-14.54-8.6-20.07C1091.33,1225.2,1084.43,1222.29,1076.93,1222.29L1076.93,1222.29z"/>
					</g>
					<g>
						<path class="st2" d="M1102.06,1328.93c-3.34,0-6.04-2.71-6.04-6.04v-106.22c0-3.34,2.71-6.04,6.04-6.04h50.78
							c3.34,0,6.04,2.71,6.04,6.04v19.61c0,3.34-2.71,6.04-6.04,6.04h-25.06v11.58h20.73c3.34,0,6.04,2.71,6.04,6.04v19.68
							c0,3.34-2.71,6.04-6.04,6.04h-20.73v37.23c0,3.34-2.71,6.04-6.04,6.04H1102.06z"/>
						<path class="st2" d="M1152.84,1216.67v19.61h-31.1v23.67h26.78v19.68h-26.78v43.27h-19.68v-106.22H1152.84 M1152.84,1204.58
							h-50.78c-6.67,0-12.08,5.41-12.08,12.08v106.22c0,6.67,5.41,12.08,12.08,12.08h19.68c6.67,0,12.08-5.41,12.08-12.08v-31.19
							h14.69c6.67,0,12.08-5.41,12.08-12.08v-19.68c0-5.47-3.64-10.1-8.63-11.58h0.88c6.67,0,12.08-5.41,12.08-12.08v-19.61
							C1164.92,1209.99,1159.51,1204.58,1152.84,1204.58L1152.84,1204.58z"/>
					</g>
					<g>
						<path class="st2" d="M1161.51,1328.93c-3.34,0-6.04-2.71-6.04-6.04v-74.02c0-3.34,2.71-6.04,6.04-6.04h16.4
							c3.34,0,6.04,2.71,6.04,6.04v74.02c0,3.34-2.71,6.04-6.04,6.04H1161.51z"/>
						<path class="st2" d="M1177.91,1248.87v74.02h-16.4v-74.02H1177.91 M1177.91,1236.79h-16.4c-6.67,0-12.08,5.41-12.08,12.08
							v74.02c0,6.67,5.41,12.08,12.08,12.08h16.4c6.67,0,12.08-5.41,12.08-12.08v-74.02
							C1189.99,1242.2,1184.58,1236.79,1177.91,1236.79L1177.91,1236.79z"/>
					</g>
				</g>
				<g>
					<path class="st2" d="M1161.51,1247.3c-3.34,0-6.04-2.71-6.04-6.04v-16.4c0-3.34,2.71-6.04,6.04-6.04h16.4
						c3.34,0,6.04,2.71,6.04,6.04v16.4c0,3.34-2.71,6.04-6.04,6.04H1161.51z"/>
					<path class="st2" d="M1177.91,1224.86v16.4h-16.4v-16.4H1177.91 M1177.91,1212.78h-16.4c-6.67,0-12.08,5.41-12.08,12.08v16.4
						c0,6.67,5.41,12.08,12.08,12.08h16.4c6.67,0,12.08-5.41,12.08-12.08v-16.4C1189.99,1218.19,1184.58,1212.78,1177.91,1212.78
						L1177.91,1212.78z"/>
				</g>
			</g>
			<g>
				<g>
					<g>
						<path class="st11" d="M917.02,1216.67l-17.78,106.22h-20.01l-9.2-45.91l-9.26,45.91h-20.01l-17.72-106.22h20.08l8.05,54.29
							l10.75-54.29h16.23l10.68,54.36l8.05-54.36H917.02z"/>
					</g>
					<g>
						<path class="st11" d="M976.91,1322.89h-16.34v-29.45c-2.58-2.58-4.03-4.03-6.62-6.62h-11.92v36.06H925.7v-88.52h16.34v36.06
							h18.54l16.34,18.45V1322.89z"/>
					</g>
					<g>
						<path class="st11" d="M1019.79,1322.89h-18.65c-4.36,0-8.17-1.62-11.44-4.85c-3.27-3.23-4.9-7.03-4.9-11.38v-56.01
							c0-4.36,1.63-8.16,4.9-11.41c3.27-3.25,7.08-4.87,11.44-4.87h18.59c4.32,0,8.14,1.63,11.47,4.9
							c3.31,3.27,4.98,7.08,4.98,11.44v55.9c0,4.39-1.66,8.21-4.96,11.44S1024.11,1322.89,1019.79,1322.89z M1019.79,1306.55v-55.84
							h-18.65v55.84H1019.79z"/>
					</g>
					<g>
						<path class="st11" d="M1076.87,1292.86h-16.45v30.03h-16.34v-88.52h32.85c4.32,0,8.15,1.65,11.46,4.93
							c3.34,3.29,4.99,7.11,4.99,11.47v25.69c0,4.39-1.67,8.23-5.01,11.49S1081.19,1292.86,1076.87,1292.86z M1077.04,1276.52
							v-25.81h-16.62v25.81H1077.04z"/>
					</g>
					<g>
						<path class="st11" d="M1152.84,1236.27h-31.1v23.67h26.78v19.68h-26.78v43.27h-19.68v-106.22h50.78V1236.27z"/>
					</g>
					<g>
						<path class="st11" d="M1177.91,1322.89h-16.4v-74.02h16.4V1322.89z"/>
					</g>
				</g>
				<g>
					<rect x="1161.51" y="1224.86" class="st11" width="16.4" height="16.4"/>
				</g>
			</g>
			<g>
				<g>
					<g>
						<polygon class="st11" points="1059.5,1193.17 999.46,988.32 940.55,1193.17 819.27,1193.17 707.7,870.99 682.21,797.29 
							653.69,714.99 658.82,716.67 630.16,697.53 562.45,652.13 757.92,652.13 806.33,793.34 881.17,1011.44 913.28,867.69 
							929.75,793.99 961.4,652.13 1040.84,652.13 1072.94,793.97 1089.61,867.67 1122.22,1011.65 1172.24,867.03 1197.72,793.33 
							1246.52,652.13 1436.35,652.13 1368.65,697.52 1339.94,716.7 1346.51,714.55 1317.87,797.29 1292.32,870.99 1180.75,1193.17 
													"/>
						<g>
							<path class="st2" d="M1416.43,658.19l-51.15,34.29l-65.4,43.68l36.91-12.07l-24.65,71.21l-25.55,73.7l-110.16,318.11h-112.4
								L999.4,966.59l-63.42,220.52h-112.4L713.42,869.01l-25.48-73.7l-24.52-70.76l35.51,11.62l-65.39-43.68l-51.16-34.29h171.22
								l47,137.12l25.29,73.7l56.46,164.51c0.06,0.13,0.06,0.19,0.06,0.19l36.79-164.7l16.48-73.7l30.59-137.12H1036l31.04,137.12
								l16.67,73.7l37.3,164.7l56.97-164.7l25.48-73.7l47.39-137.12H1416.43 M1456.27,646.07h-39.84h-165.6h-8.63l-2.82,8.16
								l-47.39,137.12l-25.48,73.7l-43.08,124.55l-27.91-123.27l-16.67-73.7l-31.04-137.12l-2.14-9.44H1036h-69.74h-9.71l-2.11,9.48
								l-30.59,137.12l-16.47,73.69l-27.43,122.81l-42.59-124.1l-25.29-73.7l-47-137.11l-2.81-8.19h-8.66H582.37h-39.84l33.09,22.18
								l51.16,34.29l21.06,14.07l4.12,11.89l24.52,70.76l25.48,73.69l110.17,318.11l2.82,8.15h8.63h112.4h9.12l2.52-8.77
								l51.88-180.41l52.89,180.47l2.55,8.71h9.08h112.4h8.63l2.82-8.15l110.16-318.11l25.54-73.7l24.65-71.21l4.34-12.52
								l19.43-12.98l51.17-34.31L1456.27,646.07L1456.27,646.07z"/>
						</g>
					</g>
				</g>
				<g>
					<linearGradient id="SVGID_5_" gradientUnits="userSpaceOnUse" x1="1000.0088" y1="1181.8831" x2="1000.0088" y2="885.7186">
						<stop  offset="0" style="stop-color:#CEE8E8;stop-opacity:0"/>
						<stop  offset="1" style="stop-color:#008080"/>
					</linearGradient>
					<polygon class="st12" points="1068.82,1180.72 999.34,943.68 931.18,1180.72 828.13,1180.72 722.39,875.39 821.32,875.39 
						883.71,1057.18 924.31,875.39 1078.6,875.39 1119.72,1056.96 1182.51,875.39 1277.63,875.39 1171.88,1180.72 					"/>
					<g>
						<path class="st11" d="M1268.66,881.78l-101.32,292.56h-93.74L1011.66,963l-12.37-42.22l-12.16,42.28l-60.76,211.28h-93.69
							L731.36,881.78h85.4l53.56,156.08l14.68,42.79l9.86-44.16l34.56-154.72h144.07l35.04,154.75l9.89,43.68l14.64-42.32
							l53.99-156.11H1268.66 M1286.6,869.01h-108.63l-56.97,164.7l-37.3-164.7H919.19l-36.79,164.7l-56.52-164.7H713.42
							l110.16,318.1h112.4l63.42-220.52l64.63,220.52h112.4L1286.6,869.01L1286.6,869.01z"/>
					</g>
				</g>
			</g>
		</g>
	</g>
</g>
</svg>
